# Made in Blockbench 5.1.4
mtllib Rail_Ro2.mtl

o mesh
v 0.378886114155692 0.0625 0.2812499999999999
v -0.378886114155692 0.0625 -0.15624999999999986
v 0.378886114155692 0 0.2812499999999999
v -0.378886114155692 0 -0.15624999999999986
v 0.31638611415569207 0.0625 0.38950317547305474
v -0.44138611415569196 0.0625 -0.047996824526944995
v 0.31638611415569207 0 0.38950317547305474
v -0.44138611415569196 0 -0.047996824526944995
vt 0.578125 0.65625
vt 0.359375 0.65625
vt 0.359375 0.640625
vt 0.578125 0.640625
vt 0.578125 0.609375
vt 0.578125 0.625
vt 0.359375 0.625
vt 0.359375 0.609375
vt 0.265625 0.5
vt 0.296875 0.5
vt 0.296875 0.71875
vt 0.265625 0.71875
vt 0.03125 0.484375
vt 0.03125 0.703125
vt 0 0.703125
vt 0 0.484375
vt 0.234375 0.953125
vt 0.234375 0.96875
vt 0.203125 0.96875
vt 0.203125 0.953125
vt 0.125 0.796875
vt 0.09375 0.796875
vt 0.09375 0.78125
vt 0.125 0.78125
vn 0.49999999999999967 0 -0.8660254037844389
vn -0.49999999999999967 0 0.8660254037844389
vn 0 1 0
vn 0 -1 0
vn 0.8660254037844389 0 0.49999999999999967
vn -0.8660254037844389 0 -0.49999999999999967
usemtl m_5e069e28-7c0c-6c9d-e531-07aab7751022
f 2/1/1 1/2/1 3/3/1 4/4/1
f 7/5/2 5/6/2 6/7/2 8/8/2
f 5/9/3 1/10/3 2/11/3 6/12/3
f 4/13/4 3/14/4 7/15/4 8/16/4
f 3/17/5 1/18/5 5/19/5 7/20/5
f 6/21/6 2/22/6 4/23/6 8/24/6
o mesh
v 0.4375000000000001 0.0625 0.31249999999999983
v -0.4374999999999999 0.0625 0.31250000000000017
v 0.4375000000000001 0 0.31249999999999983
v -0.4374999999999999 0 0.31250000000000017
v 0.43750000000000017 0.0625 0.43749999999999983
v -0.43749999999999983 0.0625 0.4375000000000001
v 0.43750000000000017 0 0.43749999999999983
v -0.43749999999999983 0 0.4375000000000001
vt 0.578125 1
vt 0.359375 1
vt 0.359375 0.984375
vt 0.578125 0.984375
vt 0.578125 0.671875
vt 0.578125 0.6875
vt 0.359375 0.6875
vt 0.359375 0.671875
vt 0 0.71875
vt 0.03125 0.71875
vt 0.03125 0.9375
vt 0 0.9375
vt 0.078125 0.71875
vt 0.078125 0.9375
vt 0.046875 0.9375
vt 0.046875 0.71875
vt 0.203125 0.984375
vt 0.203125 1
vt 0.171875 1
vt 0.171875 0.984375
vt 0.125 0.828125
vt 0.09375 0.828125
vt 0.09375 0.8125
vt 0.125 0.8125
vn -3.4450928483976665e-16 0 -1
vn 3.4450928483976665e-16 0 1
vn 0 1 0
vn 0 -1 0
vn 1 0 -3.4450928483976665e-16
vn -1 0 3.4450928483976665e-16
usemtl m_5e069e28-7c0c-6c9d-e531-07aab7751022
f 10/25/7 9/26/7 11/27/7 12/28/7
f 15/29/8 13/30/8 14/31/8 16/32/8
f 13/33/9 9/34/9 10/35/9 14/36/9
f 12/37/10 11/38/10 15/39/10 16/40/10
f 11/41/11 9/42/11 13/43/11 15/44/11
f 14/45/12 10/46/12 12/47/12 16/48/12
o mesh
v 0.40625 0.0625 0.31638611415569196
v -0.03125 0.0625 -0.44138611415569196
v 0.40625 0 0.31638611415569196
v -0.03125 0 -0.44138611415569196
v 0.29799682452694515 0.0625 0.37888611415569196
v -0.13950317547305485 0.0625 -0.37888611415569196
v 0.29799682452694515 0 0.37888611415569196
v -0.13950317547305485 0 -0.37888611415569196
vt 0.609375 0.96875
vt 0.390625 0.96875
vt 0.390625 0.953125
vt 0.609375 0.953125
vt 0.609375 0.921875
vt 0.609375 0.9375
vt 0.390625 0.9375
vt 0.390625 0.921875
vt 0.046875 0.484375
vt 0.078125 0.484375
vt 0.078125 0.703125
vt 0.046875 0.703125
vt 0.125 0.46875
vt 0.125 0.6875
vt 0.09375 0.6875
vt 0.09375 0.46875
vt 0.25 0.984375
vt 0.25 1
vt 0.21875 1
vt 0.21875 0.984375
vt 0.25 0.9375
vt 0.21875 0.9375
vt 0.21875 0.921875
vt 0.25 0.921875
vn 0.8660254037844387 0 -0.5
vn -0.8660254037844387 0 0.5
vn 0 1 0
vn 0 -1 0
vn 0.5 0 0.8660254037844387
vn -0.5 0 -0.8660254037844387
usemtl m_5e069e28-7c0c-6c9d-e531-07aab7751022
f 18/49/13 17/50/13 19/51/13 20/52/13
f 23/53/14 21/54/14 22/55/14 24/56/14
f 21/57/15 17/58/15 18/59/15 22/60/15
f 20/61/16 19/62/16 23/63/16 24/64/16
f 19/65/17 17/66/17 21/67/17 23/68/17
f 22/69/18 18/70/18 20/71/18 24/72/18
o tube
v 0.14346999999999996 0.0625 -0.31172312500000005
v 0.14346999999999996 0.125 -0.31172312500000005
v 0.17942875 0.0625 -0.18837062500000007
v 0.17942875 0.125 -0.18837062500000007
v -0.146594375 0.0625 -0.14503187499999998
v -0.146594375 0.125 -0.14503187499999998
v -0.04522625000000002 0.0625 -0.04678874999999999
v -0.04522625000000002 0.125 -0.04678874999999999
v -0.31171062499999996 0.0625 0.14502812500000004
v -0.31171062499999996 0.125 0.14502812500000004
v -0.18836749999999997 0.0625 0.18099125
v -0.18836749999999997 0.125 0.18099125
v -0.31253125 0.0625 0.49949187500000003
v -0.31253125 0.125 0.49949187500000003
v -0.1877356249999999 0.0625 0.49948875000000004
v -0.1877356249999999 0.125 0.49948875000000004
v 0.50113 0.0625 -0.3126900000000001
v 0.50113 0.125 -0.3126900000000001
v 0.50097125 0.0625 -0.18756125000000007
v 0.50097125 0.125 -0.18756125000000007
vt 0.5028890625 0.828125
vt 0.5865265625 0.828125
vt 0.5865265625 0.84375
vt 0.5028890625 0.84375
vt 0.477375 0.75
vt 0.4109890625 0.75
vt 0.4109890625 0.734375
vt 0.477375 0.734375
vt 0.0880921875 0.968840625
vt 0.14425625 0.9334453125
vt 0.1695984375 0.95800625
vt 0.0970828125 0.9996796875
vt 0.1908328125 0.7034453125
vt 0.2633484375 0.74511875
vt 0.23800625 0.7696796875
vt 0.1818421875 0.734284375
vt 0.41397109375 0.796875
vt 0.49741328125 0.796875
vt 0.49741328125 0.8125
vt 0.41397109375 0.8125
vt 0.55781484375 0.78125
vt 0.49055859375 0.78125
vt 0.49055859375 0.765625
vt 0.55781484375 0.765625
vt 0.14425625 0.9334453125
vt 0.1800421875 0.8765000000000001
vt 0.210878125 0.8854921875
vt 0.1695984375 0.95800625
vt 0.2633484375 0.74511875
vt 0.304628125 0.8176328125
vt 0.2737921875 0.8266249999999999
vt 0.23800625 0.7696796875
vt 0.49741328125 0.796875
vt 0.58602890625 0.796875
vt 0.58602890625 0.8125
vt 0.49741328125 0.8125
vt 0.49055859375 0.78125
vt 0.41093515625 0.78125
vt 0.41093515625 0.765625
vt 0.49055859375 0.765625
vt 0.1800421875 0.8765000000000001
vt 0.179884375 0.7968765625
vt 0.2110828125 0.796875
vt 0.210878125 0.8854921875
vt 0.304628125 0.8176328125
vt 0.3048328125 0.90625
vt 0.273634375 0.9062484375
vt 0.2737921875 0.8266249999999999
vt 0.4134734375 0.828125
vt 0.5028890625 0.828125
vt 0.5028890625 0.84375
vt 0.4134734375 0.84375
vt 0.5577609375 0.75
vt 0.477375 0.75
vt 0.477375 0.734375
vt 0.5577609375 0.734375
vt 0.0077078125 0.9686390625
vt 0.0880921875 0.968840625
vt 0.0970828125 0.9996796875
vt 0.0076671875 0.9999203125
vt 0.1014171875 0.7032046875
vt 0.1908328125 0.7034453125
vt 0.1818421875 0.734284375
vt 0.1014578125 0.7344859375
vt 0.40625 0.71875
vt 0.40625 0.703125
vt 0.4375 0.703125
vt 0.4375 0.71875
vt 0.359375 0.59375
vt 0.359375 0.578125
vt 0.390625 0.578125
vt 0.390625 0.59375
vn -0.49825598252115627 0 -0.8670299740388896
vn 0.5331703521968366 0 0.8460079051275474
vn 0 -1 0
vn 0 1 0
vn -0.8690580677999307 0 -0.4947100916616227
vn 0.8466947430441345 0 0.5320789528833356
vn 0 -1 0
vn 0 1 0
vn -0.9999973201277604 0 -0.002315110644825654
vn 0.9999980320275577 0 -0.0019839206162921576
vn 0 -1 0
vn 0 1 0
vn -0.0027033256921293234 0 -0.9999963460084255
vn -0.0025171553865105554 0 0.9999968319593618
vn 0 -1 0
vn 0 1 0
vn 0.000025040941932285165 0 0.9999999996864758
vn 0.9999991952096954 0 0.0012686922249244006
usemtl m_5e069e28-7c0c-6c9d-e531-07aab7751022
f 25/73/19 29/74/19 30/75/19 26/76/19
f 28/77/20 32/78/20 31/79/20 27/80/20
f 27/81/21 31/82/21 29/83/21 25/84/21
f 26/85/22 30/86/22 32/87/22 28/88/22
f 29/89/23 33/90/23 34/91/23 30/92/23
f 32/93/24 36/94/24 35/95/24 31/96/24
f 31/97/25 35/98/25 33/99/25 29/100/25
f 30/101/26 34/102/26 36/103/26 32/104/26
f 33/105/27 37/106/27 38/107/27 34/108/27
f 36/109/28 40/110/28 39/111/28 35/112/28
f 35/113/29 39/114/29 37/115/29 33/116/29
f 34/117/30 38/118/30 40/119/30 36/120/30
f 41/121/31 25/122/31 26/123/31 42/124/31
f 44/125/32 28/126/32 27/127/32 43/128/32
f 43/129/33 27/130/33 25/131/33 41/132/33
f 42/133/34 26/134/34 28/135/34 44/136/34
f 38/137/35 37/138/35 39/139/35 40/140/35
f 44/141/36 43/142/36 41/143/36 42/144/36
o tube
v 0.384116875 0.0625 0.1881518749999999
v 0.384116875 0.125 0.1881518749999999
v 0.4361206250000001 0.0625 0.3123081249999999
v 0.4361206250000001 0.125 0.3123081249999999
v 0.1875837500000001 0.0625 0.388871875
v 0.1875837500000001 0.125 0.388871875
v 0.3123281250000001 0.0625 0.4364874999999999
v 0.3123281250000001 0.125 0.4364874999999999
v 0.18687937500000013 0.0625 0.5007712499999999
v 0.18687937500000013 0.125 0.5007712499999999
v 0.3128137500000001 0.0625 0.5004325
v 0.3128137500000001 0.125 0.5004325
v 0.5006493750000001 0.0625 0.1878924999999999
v 0.5006493750000001 0.125 0.1878924999999999
v 0.5009875 0.0625 0.3128149999999999
v 0.5009875 0.125 0.3128149999999999
vt 0.09375 0.84375
vt 0.15625 0.84375
vt 0.15625 0.859375
vt 0.09375 0.859375
vt 0.140625 0.890625
vt 0.09375 0.890625
vt 0.09375 0.875
vt 0.140625 0.875
vt 0.30507890625 0.953365625
vt 0.33602734375 0.9223203125
vt 0.36721328125 0.934225
vt 0.31807890625 0.9844046875
vt 0.17745390625 0.6093453125
vt 0.22658828125 0.6595249999999999
vt 0.19540234375 0.6714296875
vt 0.16445390625 0.640384375
vt 0.3125 0.5625
vt 0.34375 0.5625
vt 0.34375 0.578125
vt 0.3125 0.578125
vt 0.109375 0.921875
vt 0.09375 0.921875
vt 0.09375 0.90625
vt 0.109375 0.90625
vt 0.33602734375 0.9223203125
vt 0.33590546875 0.906334375
vt 0.36738828125 0.90625
vt 0.36721328125 0.934225
vt 0.22658828125 0.6595249999999999
vt 0.22676328125 0.6875
vt 0.19528046875 0.687415625
vt 0.19540234375 0.6714296875
vt 0.140625 0.5625
vt 0.171875 0.5625
vt 0.171875 0.578125
vt 0.140625 0.578125
vt 0.15625 0.828125
vt 0.140625 0.828125
vt 0.140625 0.8125
vt 0.15625 0.8125
vt 0.28886171875 0.9532390625
vt 0.30507890625 0.953365625
vt 0.31807890625 0.9844046875
vt 0.28894609375 0.98446875
vt 0.14832109375 0.60928125
vt 0.17745390625 0.6093453125
vt 0.16445390625 0.640384375
vt 0.14823671875 0.6405109375
vt 0.1875 0.578125
vt 0.1875 0.5625
vt 0.21875 0.5625
vt 0.21875 0.578125
vt 0.40625 0.59375
vt 0.40625 0.578125
vt 0.4375 0.578125
vt 0.4375 0.59375
vn -0.714519694645562 0 -0.6996153271360005
vn 0.7082091166980697 0 0.7060027245172216
vn 0 -1 0
vn 0 1 0
vn -0.999980188851951 0 -0.006294593205034064
vn 0.9999711636619786 0 -0.007594198081997743
vn 0 -1 0
vn 0 1 0
vn -0.0022257684124300983 0 -0.9999975229744195
vn -0.00781384220915288 0 0.9999694714689698
vn 0 -1 0
vn 0 1 0
vn 0.0026898833181145812 0 0.9999963822573235
vn 0.999996336966849 0 -0.0027066682257954272
usemtl m_5e069e28-7c0c-6c9d-e531-07aab7751022
f 45/145/37 49/146/37 50/147/37 46/148/37
f 48/149/38 52/150/38 51/151/38 47/152/38
f 47/153/39 51/154/39 49/155/39 45/156/39
f 46/157/40 50/158/40 52/159/40 48/160/40
f 49/161/41 53/162/41 54/163/41 50/164/41
f 52/165/42 56/166/42 55/167/42 51/168/42
f 51/169/43 55/170/43 53/171/43 49/172/43
f 50/173/44 54/174/44 56/175/44 52/176/44
f 57/177/45 45/178/45 46/179/45 58/180/45
f 60/181/46 48/182/46 47/183/46 59/184/46
f 59/185/47 47/186/47 45/187/47 57/188/47
f 58/189/48 46/190/48 48/191/48 60/192/48
f 54/193/49 53/194/49 55/195/49 56/196/49
f 60/197/50 59/198/50 57/199/50 58/200/50
o mesh
v 0.43750000000000006 0.0625 0.31249999999999994
v 0.4374999999999999 0.0625 -0.43750000000000006
v 0.43750000000000006 0 0.31249999999999994
v 0.4374999999999999 0 -0.43750000000000006
v 0.3125000000000001 0.0625 0.31249999999999994
v 0.3124999999999999 0.0625 -0.43750000000000006
v 0.3125000000000001 0 0.31249999999999994
v 0.3124999999999999 0 -0.43750000000000006
vt 0.59375 0.90625
vt 0.40625 0.90625
vt 0.40625 0.890625
vt 0.59375 0.890625
vt 0.59375 0.859375
vt 0.59375 0.875
vt 0.40625 0.875
vt 0.40625 0.859375
vt 0.3125 0.59375
vt 0.34375 0.59375
vt 0.34375 0.78125
vt 0.3125 0.78125
vt 0.390625 0.703125
vt 0.390625 0.890625
vt 0.359375 0.890625
vt 0.359375 0.703125
vt 0.171875 0.765625
vt 0.171875 0.78125
vt 0.140625 0.78125
vt 0.140625 0.765625
vt 0.25 0.609375
vt 0.21875 0.609375
vt 0.21875 0.59375
vt 0.25 0.59375
vn 1 0 -2.4492935982947064e-16
vn -1 0 2.4492935982947064e-16
vn 0 1 0
vn 0 -1 0
vn 2.4492935982947064e-16 0 1
vn -2.4492935982947064e-16 0 -1
usemtl m_5e069e28-7c0c-6c9d-e531-07aab7751022
f 62/201/51 61/202/51 63/203/51 64/204/51
f 67/205/52 65/206/52 66/207/52 68/208/52
f 65/209/53 61/210/53 62/211/53 66/212/53
f 64/213/54 63/214/54 67/215/54 68/216/54
f 63/217/55 61/218/55 65/219/55 67/220/55
f 66/221/56 62/222/56 64/223/56 68/224/56