# Made in Blockbench 5.1.4
mtllib Wood.mtl

o mesh
v 0.34375 0.25 0.5
v 0.34375 0.25 -0.5
v 0.34375 0 0.5
v 0.34375 0 -0.5
v 0.09375 0.25 0.5
v 0.09375 0.25 -0.5
v 0.09375 0 0.5
v 0.09375 0 -0.5
vt 0.453125 0.921875
vt 0.234375 0.921875
vt 0.234375 0.859375
vt 0.453125 0.859375
vt 0.53125 0.703125
vt 0.53125 0.765625
vt 0.3125 0.765625
vt 0.3125 0.703125
vt 0.3125 0.46875
vt 0.375 0.46875
vt 0.375 0.6875
vt 0.3125 0.6875
vt 0.0625 0.390625
vt 0.0625 0.609375
vt 0 0.609375
vt 0 0.390625
vt 0.6875 0.78125
vt 0.6875 0.84375
vt 0.625 0.84375
vt 0.625 0.78125
vt 0.6875 0.765625
vt 0.625 0.765625
vt 0.625 0.703125
vt 0.6875 0.703125
vn 1 0 0
vn -1 0 0
vn 0 1 0
vn 0 -1 0
vn 0 0 1
vn 0 0 -1
usemtl m_fca44293-d35b-e863-f21e-0fbd574833a3
f 2/1/1 1/2/1 3/3/1 4/4/1
f 7/5/2 5/6/2 6/7/2 8/8/2
f 5/9/3 1/10/3 2/11/3 6/12/3
f 4/13/4 3/14/4 7/15/4 8/16/4
f 3/17/5 1/18/5 5/19/5 7/20/5
f 6/21/6 2/22/6 4/23/6 8/24/6
o mesh
v -0.09375 0.25 0.5
v -0.09375 0.25 -0.5
v -0.09375 0 0.5
v -0.09375 0 -0.5
v -0.34375 0.25 0.5
v -0.34375 0.25 -0.5
v -0.34375 0 0.5
v -0.34375 0 -0.5
vt 0.21875 1
vt 0 1
vt 0 0.9375
vt 0.21875 0.9375
vt 0.21875 0.859375
vt 0.21875 0.921875
vt 0 0.921875
vt 0 0.859375
vt 0 0.625
vt 0.0625 0.625
vt 0.0625 0.84375
vt 0 0.84375
vt 0.140625 0.625
vt 0.140625 0.84375
vt 0.078125 0.84375
vt 0.078125 0.625
vt 0.609375 0.703125
vt 0.609375 0.765625
vt 0.546875 0.765625
vt 0.546875 0.703125
vt 0.609375 0.453125
vt 0.546875 0.453125
vt 0.546875 0.390625
vt 0.609375 0.390625
vn 1 0 0
vn -1 0 0
vn 0 1 0
vn 0 -1 0
vn 0 0 1
vn 0 0 -1
usemtl m_fca44293-d35b-e863-f21e-0fbd574833a3
f 10/25/7 9/26/7 11/27/7 12/28/7
f 15/29/8 13/30/8 14/31/8 16/32/8
f 13/33/9 9/34/9 10/35/9 14/36/9
f 12/37/10 11/38/10 15/39/10 16/40/10
f 11/41/11 9/42/11 13/43/11 15/44/11
f 14/45/12 10/46/12 12/47/12 16/48/12
o mesh
v 0.5000000000000001 0.5 -0.3437499999999999
v -0.4999999999999999 0.5 -0.3437500000000001
v 0.5000000000000001 0.25 -0.3437499999999999
v -0.4999999999999999 0.25 -0.3437500000000001
v 0.5 0.5 -0.09374999999999989
v -0.5 0.5 -0.09375000000000011
v 0.5 0.25 -0.09374999999999989
v -0.5 0.25 -0.09375000000000011
vt 0.6875 0.609375
vt 0.46875 0.609375
vt 0.46875 0.546875
vt 0.6875 0.546875
vt 0.6875 0.46875
vt 0.6875 0.53125
vt 0.46875 0.53125
vt 0.46875 0.46875
vt 0.3125 0.234375
vt 0.375 0.234375
vt 0.375 0.453125
vt 0.3125 0.453125
vt 0.53125 0.234375
vt 0.53125 0.453125
vt 0.46875 0.453125
vt 0.46875 0.234375
vt 0.6875 0.3125
vt 0.6875 0.375
vt 0.625 0.375
vt 0.625 0.3125
vt 0.0625 0.296875
vt 0 0.296875
vt 0 0.234375
vt 0.0625 0.234375
vn 2.220446049250313e-16 0 -1
vn -2.220446049250313e-16 0 1
vn 0 1 0
vn 0 -1 0
vn 1 0 2.220446049250313e-16
vn -1 0 -2.220446049250313e-16
usemtl m_fca44293-d35b-e863-f21e-0fbd574833a3
f 18/49/13 17/50/13 19/51/13 20/52/13
f 23/53/14 21/54/14 22/55/14 24/56/14
f 21/57/15 17/58/15 18/59/15 22/60/15
f 20/61/16 19/62/16 23/63/16 24/64/16
f 19/65/17 17/66/17 21/67/17 23/68/17
f 22/69/18 18/70/18 20/71/18 24/72/18
o mesh
v -0.4999999999999999 0.5 0.3437500000000001
v 0.5000000000000001 0.5 0.3437499999999999
v -0.4999999999999999 0.25 0.3437500000000001
v 0.5000000000000001 0.25 0.3437499999999999
v -0.5 0.5 0.09375000000000011
v 0.5 0.5 0.09374999999999989
v -0.5 0.25 0.09375000000000011
v 0.5 0.25 0.09374999999999989
vt 0.609375 0.84375
vt 0.390625 0.84375
vt 0.390625 0.78125
vt 0.609375 0.78125
vt 0.609375 0.625
vt 0.609375 0.6875
vt 0.390625 0.6875
vt 0.390625 0.625
vt 0.078125 0.390625
vt 0.140625 0.390625
vt 0.140625 0.609375
vt 0.078125 0.609375
vt 0.453125 0.390625
vt 0.453125 0.609375
vt 0.390625 0.609375
vt 0.390625 0.390625
vt 0.6875 0.625
vt 0.6875 0.6875
vt 0.625 0.6875
vt 0.625 0.625
vt 0.453125 0.375
vt 0.390625 0.375
vt 0.390625 0.3125
vt 0.453125 0.3125
vn 2.220446049250313e-16 0 1
vn -2.220446049250313e-16 0 -1
vn 0 1 0
vn 0 -1 0
vn -1 0 2.220446049250313e-16
vn 1 0 -2.220446049250313e-16
usemtl m_fca44293-d35b-e863-f21e-0fbd574833a3
f 26/73/19 25/74/19 27/75/19 28/76/19
f 31/77/20 29/78/20 30/79/20 32/80/20
f 29/81/21 25/82/21 26/83/21 30/84/21
f 28/85/22 27/86/22 31/87/22 32/88/22
f 27/89/23 25/90/23 29/91/23 31/92/23
f 30/93/24 26/94/24 28/95/24 32/96/24