# Made in Blockbench 5.1.4
mtllib Tooltip.mtl

o mesh
v 0.09375 0.875 0.53125
v 0.09375 0.875 -0.53125
v 0.09375 0 0.53125
v 0.09375 0 -0.53125
v -0.09375 0.875 0.53125
v -0.09375 0.875 -0.53125
v -0.09375 0 0.53125
v -0.09375 0 -0.53125
vt 0.265625 1
vt 0 1
vt 0 0.78125
vt 0.265625 0.78125
vt 0.265625 0.546875
vt 0.265625 0.765625
vt 0 0.765625
vt 0 0.546875
vt 0.28125 0.734375
vt 0.328125 0.734375
vt 0.328125 1
vt 0.28125 1
vt 0.328125 0.453125
vt 0.328125 0.71875
vt 0.28125 0.71875
vt 0.28125 0.453125
vt 0.390625 0.78125
vt 0.390625 1
vt 0.34375 1
vt 0.34375 0.78125
vt 0.390625 0.765625
vt 0.34375 0.765625
vt 0.34375 0.546875
vt 0.390625 0.546875
vn 1 0 0
vn -1 0 0
vn 0 1 0
vn 0 -1 0
vn 0 0 1
vn 0 0 -1
usemtl m_66e3d67f-5614-dca6-cb58-2529b237fca2
f 2/1/1 1/2/1 3/3/1 4/4/1
f 7/5/2 5/6/2 6/7/2 8/8/2
f 5/9/3 1/10/3 2/11/3 6/12/3
f 4/13/4 3/14/4 7/15/4 8/16/4
f 3/17/5 1/18/5 5/19/5 7/20/5
f 6/21/6 2/22/6 4/23/6 8/24/6